<svg xmlns="http://www.w3.org/2000/svg" style="display: none;">
  <defs>
    <style>
      @keyframes iconPulse {
        0%, 100% { opacity: 1; transform: scale(1); }
        50% { opacity: 0.8; transform: scale(1.1); }
      }
      
      .icon-animated {
        animation: iconPulse 0.3s ease-in-out;
      }
    </style>
  </defs>
  
  <!-- Lock Icon - Login -->
  <symbol id="icon-lock" viewBox="0 0 24 24">
    <path fill="#2c3e50" d="M12 1C6.48 1 2 5.48 2 11v10c0 1.1.9 2 2 2h16c1.1 0 2-.9 2-2V11c0-5.52-4.48-10-10-10zm0 2c4.41 0 8 3.59 8 8v2H4v-2c0-4.41 3.59-8 8-8zm0 12c1.66 0 3 1.34 3 3s-1.34 3-3 3-3-1.34-3-3 1.34-3 3-3z"/>
  </symbol>

  <!-- Door/Exit Icon - Logout -->
  <symbol id="icon-logout" viewBox="0 0 24 24">
    <path fill="#2c3e50" d="M17 7l-1.41 1.41L18.17 11H8v2h10.17l-2.58 2.58L17 17l5-5zM4 5h8V3H4c-1.1 0-2 .9-2 2v14c0 1.1.9 2 2 2h8v-2H4V5z"/>
  </symbol>

  <!-- Arrow Back - Voltar -->
  <symbol id="icon-back" viewBox="0 0 24 24">
    <path fill="#2c3e50" d="M20 11H7.83l5.59-5.59L12 4l-8 8 8 8 1.41-1.41L7.83 13H20v-2z"/>
  </symbol>

  <!-- Chart Icon - Vendas -->
  <symbol id="icon-chart" viewBox="0 0 24 24">
    <path fill="#2c3e50" d="M5 9.2h3V19H5zM10.6 5h2.8v14h-2.8zm5.6 8H19v6h-2.8z"/>
  </symbol>

  <!-- Settings Icon - Gerência -->
  <symbol id="icon-settings" viewBox="0 0 24 24">
    <path fill="#2c3e50" d="M19.14 12.94c.04-.3.06-.61.06-.94 0-.32-.02-.64-.07-.94l2.03-1.58c.18-.14.23-.41.12-.64l-1.92-3.32c-.12-.22-.37-.29-.59-.22l-2.39.96c-.5-.39-1.03-.74-1.62-.99L14.4 2.81c-.04-.25-.25-.43-.5-.43h-3.84c-.25 0-.46.18-.49.43l-.36 2.54c-.59.25-1.13.61-1.62.99l-2.39-.96c-.22-.08-.47 0-.59.22L2.74 8.87c-.12.22-.07.49.12.64l2.03 1.58c-.05.3-.07.62-.07.94s.02.64.07.94l-2.03 1.58c-.18.14-.23.41-.12.64l1.92 3.32c.12.22.37.29.59.22l2.39-.96c.5.39 1.03.74 1.62.99l.36 2.54c.05.25.25.43.5.43h3.84c.25 0 .46-.18.49-.43l.36-2.54c.59-.25 1.13-.61 1.62-.99l2.39.96c.22.08.47 0 .59-.22l1.92-3.32c.12-.22.07-.49-.12-.64l-2.01-1.58zM12 15.6c-1.98 0-3.6-1.62-3.6-3.6s1.62-3.6 3.6-3.6 3.6 1.62 3.6 3.6-1.62 3.6-3.6 3.6z"/>
  </symbol>

  <!-- Delete/Trash Icon -->
  <symbol id="icon-trash" viewBox="0 0 24 24">
    <path fill="#2c3e50" d="M6 19c0 1.1.9 2 2 2h8c1.1 0 2-.9 2-2V7H6v12zM19 4h-3.5l-1-1h-9l-1 1H5v2h14V4z"/>
  </symbol>

  <!-- Plus Icon - Adicionar -->
  <symbol id="icon-plus" viewBox="0 0 24 24">
    <path fill="#2c3e50" d="M19 13h-6v6h-2v-6H5v-2h6V5h2v6h6v2z"/>
  </symbol>

  <!-- Check Icon - Confirmar -->
  <symbol id="icon-check" viewBox="0 0 24 24">
    <path fill="#2c3e50" d="M9 16.17L4.83 12l-1.42 1.41L9 19 21 7l-1.41-1.41L9 16.17z"/>
  </symbol>

  <!-- X Icon - Fechar -->
  <symbol id="icon-close" viewBox="0 0 24 24">
    <path fill="#2c3e50" d="M19 6.41L17.59 5 12 10.59 6.41 5 5 6.41 10.59 12 5 17.59 6.41 19 12 13.41 17.59 19 19 17.59 13.41 12 19 6.41z"/>
  </symbol>

  <!-- Warning Icon -->
  <symbol id="icon-warning" viewBox="0 0 24 24">
    <path fill="#2c3e50" d="M1 21h22L12 2 1 21zm12-3h-2v-2h2v2zm0-4h-2v-4h2v4z"/>
  </symbol>

  <!-- Info Icon -->
  <symbol id="icon-info" viewBox="0 0 24 24">
    <path fill="#2c3e50" d="M12 2C6.48 2 2 6.48 2 12s4.48 10 10 10 10-4.48 10-10S17.52 2 12 2zm1 15h-2v-6h2v6zm0-8h-2V7h2v2z"/>
  </symbol>

  <!-- Calculator Icon -->
  <symbol id="icon-calculator" viewBox="0 0 24 24">
    <path fill="#2c3e50" d="M19 3H5c-1.1 0-2 .9-2 2v14c0 1.1.9 2 2 2h14c1.1 0 2-.9 2-2V5c0-1.1-.9-2-2-2zm-5 14h-2v2h-2v-2H8v-2h2v-2h2v2h2v2zm4-7H6V6h12v4z"/>
  </symbol>

  <!-- Loading Spinner -->
  <symbol id="icon-spinner" viewBox="0 0 50 50">
    <circle cx="25" cy="25" r="20" fill="none" stroke="#2c3e50" stroke-width="3"/>
    <path fill="none" stroke="#2c3e50" stroke-width="3" d="M 25 5 A 20 20 0 0 1 45 25" stroke-linecap="round">
      <animateTransform attributeName="transform" type="rotate" from="0 25 25" to="360 25 25" dur="1s" repeatCount="indefinite"/>
    </path>
  </symbol>
</svg>


